<?xml version="1.0" encoding="UTF-8" standalone="no"?>
<!-- Created with Inkscape (http://www.inkscape.org/) -->

<svg
   width="1280mm"
   height="640mm"
   viewBox="0 0 1280 640.00008"
   version="1.1"
   id="svg1"
   xml:space="preserve"
   inkscape:version="1.4 (e7c3feb100, 2024-10-09)"
   sodipodi:docname="OneMount-Logo-github.svg"
   inkscape:export-filename="OneMount-Logo-github.png"
   inkscape:export-xdpi="25.4"
   inkscape:export-ydpi="25.4"
   xmlns:inkscape="http://www.inkscape.org/namespaces/inkscape"
   xmlns:sodipodi="http://sodipodi.sourceforge.net/DTD/sodipodi-0.dtd"
   xmlns="http://www.w3.org/2000/svg"
   xmlns:svg="http://www.w3.org/2000/svg"><sodipodi:namedview
     id="namedview1"
     pagecolor="#ffffff"
     bordercolor="#000000"
     borderopacity="0.25"
     inkscape:showpageshadow="2"
     inkscape:pageopacity="0.0"
     inkscape:pagecheckerboard="0"
     inkscape:deskcolor="#d1d1d1"
     inkscape:document-units="mm"
     inkscape:zoom="0.077673481"
     inkscape:cx="-1081.4502"
     inkscape:cy="1519.18"
     inkscape:window-width="1920"
     inkscape:window-height="1012"
     inkscape:window-x="2192"
     inkscape:window-y="0"
     inkscape:window-maximized="1"
     inkscape:current-layer="layer1"
     showguides="true" /><defs
     id="defs1"><rect
       x="435.83392"
       y="100.13939"
       width="454.04108"
       height="157.03676"
       id="rect3" /></defs><g
     inkscape:label="Layer 1"
     inkscape:groupmode="layer"
     id="layer1"
     transform="translate(-28.514942,-114.96828)"><g
       id="g1"
       transform="translate(7.9645613,-13.327783)"><path
         style="fill:#007fc8;fill-opacity:1;stroke-width:3.8298"
         d="m 248.73299,598.35093 c -9.86065,-0.44446 -15.69942,-1.29475 -27.18579,-3.95911 -4.19667,-0.97344 -14.91515,-4.37752 -19.81765,-6.29382 -1.11791,-0.43698 -2.43404,-0.92689 -2.92471,-1.08866 -1.46255,-0.48221 -13.61793,-6.55977 -16.71682,-8.35829 -3.93867,-2.2859 -9.26842,-5.58624 -9.57683,-5.9303 -0.13976,-0.156 -1.39739,-1.06371 -2.7948,-2.01731 -5.38312,-3.67365 -12.32909,-9.54316 -18.52015,-15.64997 -7.03042,-6.93475 -8.67633,-8.73842 -12.48721,-13.68396 -1.39162,-1.80599 -2.66373,-3.39726 -2.82688,-3.53617 -0.16315,-0.13894 -2.32581,-3.31313 -4.8059,-7.05377 -12.82429,-19.34238 -20.96165,-41.62398 -23.71378,-64.9325 -1.29877,-10.9997 -0.68516,-33.60804 1.17227,-43.19182 1.22701,-6.33111 2.12975,-10.48569 2.74414,-12.62916 0.35835,-1.25027 1.04181,-3.6372 1.51874,-5.30428 1.17283,-4.09955 3.67106,-11.03166 5.14797,-14.28476 0.66568,-1.46626 1.21034,-2.79999 1.21034,-2.96392 0,-0.86564 8.30691,-16.57427 9.46581,-17.90017 0.38339,-0.43865 0.69711,-0.93665 0.69711,-1.10664 0,-0.41354 5.17963,-7.9488 8.06674,-11.73533 5.7299,-7.51501 15.74497,-18.03278 22.42196,-23.54737 4.63574,-3.82874 14.22694,-10.71829 18.51637,-13.30071 4.56438,-2.74799 15.39413,-8.21663 19.59453,-9.89458 1.53715,-0.61407 3.51537,-1.43024 4.39603,-1.81379 0.8807,-0.38355 1.95334,-0.69738 2.38372,-0.69738 0.43034,0 0.90776,-0.20167 1.06092,-0.4479 0.15324,-0.24651 1.10946,-0.60287 2.12513,-0.79229 1.01566,-0.18929 2.21868,-0.54157 2.67335,-0.78256 0.45469,-0.24101 3.57069,-1.15075 6.92446,-2.02159 8.79061,-2.28267 9.38947,-2.41959 12.19549,-2.78732 1.39741,-0.18323 3.34109,-0.52499 4.31925,-0.75964 3.77773,-0.90622 22.15798,-2.12832 27.43985,-1.82442 13.26633,0.76319 20.55491,1.84104 33.53759,4.95958 4.53477,1.08931 15.26017,4.47895 18.29323,5.78145 0.97817,0.42004 2.23583,0.95201 2.79477,1.1821 2.65569,1.09338 15.02248,7.21034 17.27697,8.5457 1.39739,0.82767 3.36358,1.95396 4.36932,2.50284 5.77659,3.15253 17.27297,12.35062 25.26028,20.21031 14.19321,13.96647 24.38031,28.99412 33.27159,49.08113 2.50548,5.66037 6.7847,20.03864 8.41936,28.28938 3.09424,15.61784 3.43319,36.81007 0.84432,52.78994 -1.83569,11.3309 -5.35351,23.82344 -9.3887,33.34103 -0.4712,1.11138 -1.28434,3.04362 -1.80703,4.29391 -0.52261,1.25032 -2.53923,5.34198 -4.48123,9.09267 -10.14383,19.59079 -22.05757,33.96745 -40.73543,49.15654 -2.08569,1.69616 -10.94501,7.69362 -14.48211,9.80398 -5.55901,3.31664 -14.25175,7.63027 -20.57991,10.21237 -0.55897,0.22781 -1.70227,0.69599 -2.54069,1.03978 -3.01589,1.23659 -13.78295,4.7153 -16.76882,5.4178 -10.45939,2.46078 -16.10206,3.43325 -24.13691,4.15993 -7.97223,0.72099 -13.1279,0.8222 -21.85026,0.42905 z m 20.83396,-24.69571 c 10.37718,-0.88933 23.12206,-3.93 33.5376,-8.0015 21.69283,-8.47979 40.578,-22.66273 54.53284,-40.9547 1.58977,-2.08385 3.07226,-4.01609 3.29456,-4.29393 0.22229,-0.27805 1.70366,-2.6401 3.292,-5.24947 l 2.88795,-4.74422 -1.8746,-2.58068 c -1.03101,-1.41938 -2.57024,-3.54368 -3.4205,-4.72071 -0.85024,-1.17702 -2.41635,-3.33659 -3.48022,-4.79905 -4.80038,-6.59902 -14.26085,-19.69962 -18.89963,-26.17171 -2.79479,-3.89936 -7.36809,-10.25055 -10.16292,-14.11367 -2.7948,-3.86318 -5.93093,-8.23027 -6.96922,-9.70463 -1.03829,-1.47429 -3.78227,-5.32561 -6.09775,-8.55843 -2.31547,-3.23279 -5.69632,-7.96621 -7.51292,-10.51874 -1.8166,-2.55252 -5.50207,-7.65972 -8.18991,-11.34932 -2.68785,-3.68966 -4.98616,-7.00416 -5.10736,-7.36559 -0.23384,-0.69766 -11.80515,14.91039 -30.44581,41.06733 l -1.36441,1.91449 -1.68766,-2.16707 c -4.77176,-6.12725 -13.2396,-16.54996 -13.6514,-16.80296 -0.25861,-0.15875 1.15152,-2.61394 3.13364,-5.4557 1.98211,-2.84171 5.32545,-7.66737 7.42963,-10.72364 3.4787,-5.05268 7.16839,-10.34522 14.08693,-20.20667 3.61117,-5.14719 7.83184,-11.28598 12.54446,-18.24527 4.26819,-6.30307 6.32813,-8.276 8.64108,-8.276 2.40292,0 3.81801,0.90796 6.45111,4.1391 3.25657,3.99615 3.04264,3.71502 5.116,6.722 0.95795,1.3892 3.92112,5.51509 6.58488,9.1686 6.13487,8.41426 13.95671,19.24758 16.31718,22.59947 1.00059,1.42081 3.70605,5.19752 6.01223,8.3927 2.30619,3.19516 4.51797,6.26412 4.91508,6.81978 0.3972,0.55566 3.06533,4.24634 5.92919,8.20148 2.86393,3.95513 8.17978,11.31417 11.81304,16.35342 3.63323,5.03918 9.19688,12.69071 12.36376,17.0033 3.16682,4.31259 6.34747,8.72687 7.0681,9.80942 0.72062,1.08255 1.46629,1.78859 1.65694,1.56901 0.34187,-0.39394 1.2692,-3.83484 2.76192,-10.25001 3.1433,-13.50893 2.95916,-36.12942 -0.4153,-51.02191 -2.64564,-11.67637 -6.28633,-21.56889 -11.89832,-32.33064 -3.48742,-6.68753 -9.48794,-15.74269 -13.95597,-21.06027 -16.58595,-19.73962 -35.46026,-32.56973 -58.91352,-40.04733 -5.5505,-1.76963 -6.17204,-1.94956 -9.69329,-2.80651 -3.30689,-0.80482 -4.61473,-1.03917 -13.07242,-2.34222 -4.87819,-0.75158 -26.51679,-0.77758 -31.505,-0.0382 -7.08777,1.05107 -10.40271,1.65481 -14.73619,2.68378 -4.12547,0.97958 -13.8605,4.03307 -16.00659,5.02065 -0.55896,0.25723 -2.20955,0.92242 -3.66801,1.47823 -6.38959,2.43521 -19.56163,9.87759 -25.77457,14.56305 -7.62871,5.75321 -12.83082,10.60284 -20.36614,18.98632 -0.43114,0.47966 -1.74945,2.10477 -4.97156,6.12859 -3.84915,4.80685 -9.57697,14.10913 -12.91188,20.96971 -5.59537,11.51057 -8.54443,20.63028 -11.27166,34.85651 -0.99181,5.17355 -2.20507,21.41578 -1.90563,25.51092 0.8293,11.34132 1.95063,19.64895 3.37523,25.00577 2.24548,8.44377 5.94532,18.18602 6.90651,18.18602 0.39474,0 0.71774,-0.18405 0.71774,-0.40938 0,-0.22532 1.88648,-2.66964 4.1922,-5.43225 2.30571,-2.76264 6.02151,-7.26808 8.25737,-10.01218 7.35932,-9.0322 9.51839,-11.65886 10.86509,-13.21817 0.73171,-0.84725 2.1307,-2.53201 3.10889,-3.74389 1.9855,-2.45992 11.30914,-13.8561 12.62188,-15.42757 0.46419,-0.55567 2.33029,-2.82666 4.14691,-5.04659 1.81664,-2.21995 3.55147,-4.30184 3.85523,-4.62645 0.30374,-0.32456 3.20198,-3.85044 6.44049,-7.83516 14.62152,-17.9905 16.72139,-20.29335 19.1928,-21.04798 2.13617,-0.65229 2.47421,-0.62305 4.67289,0.40443 1.90451,0.88996 3.2208,2.21577 6.69961,6.74791 2.38118,3.10216 4.51734,5.86763 4.74704,6.14545 0.22972,0.27804 7.04796,9.37084 15.1517,20.20671 8.10377,10.83584 15.22257,20.26982 15.81962,20.96439 0.92738,1.07903 10.18963,12.94298 13.54177,17.34564 0.60004,0.78809 1.32988,1.69737 1.62195,2.0207 0.29193,0.32342 2.33973,2.97469 4.55043,5.89206 2.21072,2.91734 4.25845,5.55754 4.55047,5.86711 0.29193,0.30962 4.94561,6.37323 10.34122,13.4748 5.3956,7.10159 10.14041,13.18437 10.54399,13.5174 0.40363,0.33298 0.7338,0.80492 0.7338,1.04874 0,0.24459 -6.9003,0.4433 -15.38993,0.4433 h -15.38999 l -1.93006,-2.57007 c -1.06153,-1.41355 -2.25073,-2.94799 -2.64268,-3.40989 -1.32535,-1.56179 -14.87669,-19.04357 -22.65208,-29.22202 -2.41747,-3.16461 -5.1287,-6.64824 -6.02494,-7.74138 -0.89624,-1.09311 -3.26295,-4.1235 -5.25934,-6.7342 -18.87132,-24.67816 -22.36633,-29.14738 -22.69497,-29.02107 -0.20772,0.0798 -2.69958,2.98675 -5.53737,6.45972 -2.83786,3.47306 -6.58694,8.01953 -8.33136,10.10339 -1.74437,2.0838 -4.86984,5.94833 -6.94542,8.58779 -2.0756,2.63952 -4.47046,5.60288 -5.32193,6.58534 -0.85148,0.98232 -2.34846,2.79281 -3.32664,4.02319 -0.9782,1.2304 -2.47552,3.04084 -3.3274,4.02324 -0.85188,0.9824 -3.93061,4.7414 -6.8416,8.35336 -6.90242,8.5645 -19.09844,23.76839 -20.85747,26.00153 l -1.38126,1.75353 2.3204,3.04558 c 15.15737,19.89423 35.01061,34.71447 57.52719,42.94344 2.0961,0.76605 4.2684,1.58919 4.82737,1.82923 3.07363,1.31982 15.49043,4.09494 22.61249,5.05382 10.41124,1.40172 16.83272,1.49043 29.4724,0.40722 z"
         id="path3" /><text
         xml:space="preserve"
         transform="matrix(1.9119973,0,0,1.9119973,-389.82823,134.95275)"
         id="text3"
         style="font-style:normal;font-variant:normal;font-weight:300;font-stretch:normal;font-size:85.3333px;font-family:'NotoSansM Nerd Font Mono';-inkscape-font-specification:'NotoSansM Nerd Font Mono, Light';font-variant-ligatures:normal;font-variant-caps:normal;font-variant-numeric:normal;font-variant-east-asian:normal;text-align:start;writing-mode:lr-tb;direction:ltr;white-space:pre;shape-inside:url(#rect3);display:inline;fill:#007fc8;fill-opacity:1;stroke:#007fc8;stroke-width:3.77953;stroke-dasharray:none;stroke-opacity:1"><tspan
           x="435.83398"
           y="177.78132"
           id="tspan1">OneMount</tspan></text><text
         xml:space="preserve"
         style="font-style:normal;font-variant:normal;font-weight:500;font-stretch:semi-condensed;font-size:40.502px;font-family:'NotoSansM Nerd Font Mono';-inkscape-font-specification:'NotoSansM Nerd Font Mono, Medium Semi-Condensed';font-variant-ligatures:normal;font-variant-caps:normal;font-variant-numeric:normal;font-variant-east-asian:normal;text-align:start;writing-mode:lr-tb;direction:ltr;text-anchor:start;fill:#007fc8;fill-opacity:1;stroke:#007fc8;stroke-width:1.02507;stroke-dasharray:none;stroke-opacity:1"
         x="439.77576"
         y="535.05615"
         id="text4"
         transform="scale(1.0030659,0.99694348)"><tspan
           sodipodi:role="line"
           id="tspan4"
           style="font-style:normal;font-variant:normal;font-weight:300;font-stretch:condensed;font-size:40.502px;font-family:'NotoSansM Nerd Font Mono';-inkscape-font-specification:'NotoSansM Nerd Font Mono, Light Condensed';font-variant-ligatures:normal;font-variant-caps:normal;font-variant-numeric:normal;font-variant-east-asian:normal;fill:#007fc8;fill-opacity:1;stroke:#007fc8;stroke-width:1.02507;stroke-opacity:1"
           x="439.77576"
           y="535.05615">Linux Access to OneDrive Made Simple</tspan></text></g></g></svg>
