<?xml version="1.0" encoding="UTF-8" standalone="no"?>
<!-- Created with Inkscape (http://www.inkscape.org/) -->

<svg
   width="109.2476mm"
   height="109.2476mm"
   viewBox="0 0 109.2476 109.2476"
   version="1.1"
   id="svg1"
   xml:space="preserve"
   inkscape:version="1.4 (e7c3feb100, 2024-10-09)"
   sodipodi:docname="onemount-icon.svg"
   inkscape:export-filename="onemount-icon-512.png"
   inkscape:export-xdpi="119.04"
   inkscape:export-ydpi="119.04"
   xmlns:inkscape="http://www.inkscape.org/namespaces/inkscape"
   xmlns:sodipodi="http://sodipodi.sourceforge.net/DTD/sodipodi-0.dtd"
   xmlns="http://www.w3.org/2000/svg"
   xmlns:svg="http://www.w3.org/2000/svg"><sodipodi:namedview
     id="namedview1"
     pagecolor="#ffffff"
     bordercolor="#000000"
     borderopacity="0.25"
     inkscape:showpageshadow="2"
     inkscape:pageopacity="0.0"
     inkscape:pagecheckerboard="0"
     inkscape:deskcolor="#d1d1d1"
     inkscape:document-units="mm"
     inkscape:zoom="0.87877512"
     inkscape:cx="135.41576"
     inkscape:cy="270.83152"
     inkscape:window-width="1920"
     inkscape:window-height="1012"
     inkscape:window-x="2192"
     inkscape:window-y="0"
     inkscape:window-maximized="1"
     inkscape:current-layer="layer1" /><defs
     id="defs1" /><g
     inkscape:label="Layer 1"
     inkscape:groupmode="layer"
     id="layer1"
     transform="translate(-28.514942,-114.96828)"><path
       style="fill:#007fc8;fill-opacity:1;stroke-width:1.39204"
       d="m 80.150556,224.13332 c -3.584099,-0.16155 -5.70635,-0.47061 -9.881352,-1.43904 -1.525393,-0.35382 -5.421294,-1.59112 -7.203233,-2.28765 -0.406336,-0.15883 -0.884713,-0.3369 -1.06306,-0.3957 -0.531599,-0.17527 -4.949782,-2.38431 -6.076155,-3.03803 -1.43161,-0.83087 -3.368832,-2.03046 -3.480936,-2.15552 -0.05079,-0.0567 -0.50792,-0.38663 -1.015841,-0.73324 -1.956634,-1.33528 -4.481321,-3.4687 -6.731616,-5.68838 -2.555382,-2.52061 -3.153633,-3.1762 -4.538793,-4.97378 -0.505823,-0.65643 -0.968197,-1.23482 -1.0275,-1.28531 -0.05931,-0.0505 -0.845376,-1.20424 -1.74683,-2.56387 -4.661306,-7.03048 -7.619044,-15.12929 -8.619368,-23.60136 -0.472069,-3.99812 -0.24904,-12.21569 0.426083,-15.69916 0.44599,-2.3012 0.774116,-3.81129 0.99743,-4.59039 0.130259,-0.45444 0.37867,-1.32203 0.552021,-1.92797 0.426302,-1.49009 1.334339,-4.00974 1.871161,-5.19216 0.241963,-0.53295 0.439932,-1.01773 0.439932,-1.07731 0,-0.31464 3.019356,-6.02434 3.440595,-6.50627 0.139349,-0.15944 0.253372,-0.34045 0.253372,-0.40224 0,-0.15031 1.882676,-2.88919 2.932064,-4.2655 2.082681,-2.73152 5.722912,-6.55447 8.149833,-8.55889 1.684972,-1.39165 5.171133,-3.89583 6.730238,-4.83448 1.659038,-0.99882 5.595391,-2.98654 7.122132,-3.59643 0.558714,-0.2232 1.277745,-0.51986 1.59785,-0.65927 0.320105,-0.13941 0.709991,-0.25348 0.866417,-0.25348 0.156424,0 0.329952,-0.0733 0.385617,-0.1628 0.05567,-0.0896 0.40326,-0.21913 0.772432,-0.28798 0.369171,-0.0688 0.80644,-0.19685 0.971705,-0.28444 0.165267,-0.0876 1.297855,-0.41827 2.516864,-0.7348 3.195171,-0.82969 3.412842,-0.87946 4.432762,-1.01312 0.507918,-0.0666 1.214395,-0.19082 1.569937,-0.27611 1.373109,-0.32939 8.053883,-0.77359 9.973708,-0.66313 4.821989,0.2774 7.471202,0.66917 12.190087,1.80268 1.648274,0.39594 5.546698,1.62799 6.649138,2.10142 0.35554,0.15267 0.81267,0.34603 1.01583,0.42966 0.96528,0.39742 5.4603,2.62078 6.27975,3.10615 0.50792,0.30084 1.22258,0.71022 1.58814,0.90972 2.09965,1.14587 6.2783,4.48915 9.18149,7.34595 5.15888,5.07647 8.86164,10.53865 12.0934,17.83978 0.91068,2.0574 2.46607,7.28355 3.06023,10.28249 1.12468,5.6767 1.24788,13.37955 0.30689,19.18784 -0.66723,4.1185 -1.94587,8.65923 -3.41256,12.11864 -0.17127,0.40396 -0.46683,1.10628 -0.65681,1.56073 -0.18996,0.45446 -0.92295,1.94168 -1.62882,3.30496 -3.68703,7.12077 -8.01738,12.34633 -14.80632,17.86719 -0.7581,0.61651 -3.97824,2.79644 -5.26389,3.5635 -2.02056,1.20552 -5.18016,2.77342 -7.48029,3.71195 -0.20317,0.0828 -0.61873,0.25297 -0.92348,0.37793 -1.0962,0.44947 -5.00976,1.7139 -6.095053,1.96924 -3.80173,0.89443 -5.852694,1.2479 -8.773163,1.51203 -2.897712,0.26206 -4.771673,0.29885 -7.942038,0.15595 z m 7.572632,-8.97628 c 3.771852,-0.32325 8.404301,-1.42846 12.190087,-2.90835 7.884815,-3.08219 14.749105,-8.23734 19.821345,-14.88602 0.57784,-0.75743 1.11669,-1.45975 1.19749,-1.56074 0.0808,-0.10106 0.61924,-0.95961 1.19656,-1.90805 l 1.0497,-1.72441 -0.68137,-0.93801 c -0.37475,-0.51591 -0.93422,-1.28804 -1.24327,-1.71586 -0.30904,-0.42782 -0.87828,-1.21277 -1.26497,-1.74434 -1.74482,-2.39858 -5.18347,-7.16032 -6.86955,-9.51277 -1.01584,-1.41732 -2.67812,-3.72582 -3.69397,-5.12997 -1.01584,-1.40417 -2.15575,-2.9915 -2.53314,-3.52739 -0.37739,-0.53587 -1.37476,-1.93573 -2.21638,-3.11078 -0.84162,-1.17504 -2.07047,-2.89552 -2.73076,-3.8233 -0.66029,-0.92778 -1.999867,-2.78412 -2.976833,-4.1252 -0.976966,-1.3411 -1.812349,-2.54584 -1.856398,-2.67721 -0.08502,-0.25358 -4.290882,5.41956 -11.066302,14.92696 l -0.495924,0.69587 -0.613424,-0.78768 c -1.734416,-2.2271 -4.812273,-6.0155 -4.961954,-6.10746 -0.09396,-0.0577 0.418551,-0.9501 1.139002,-1.98301 0.720453,-1.03289 1.935671,-2.7869 2.700493,-3.89778 1.264418,-1.83652 2.605527,-3.76023 5.120249,-7.34462 1.312571,-1.87088 2.846683,-4.10218 4.559599,-6.63171 1.551382,-2.29101 2.300119,-3.00812 3.140822,-3.00812 0.8734,0 1.387754,0.33002 2.344824,1.50446 1.183676,1.4525 1.105916,1.35032 1.859536,2.44328 0.34819,0.50494 1.42523,2.0046 2.39344,3.33256 2.22987,3.05838 5.07292,6.99602 5.93089,8.21435 0.36369,0.51643 1.34706,1.88917 2.1853,3.05054 0.83824,1.16136 1.64217,2.27685 1.78651,2.47882 0.14437,0.20197 1.11417,1.54344 2.15511,2.98104 1.04097,1.43759 2.97315,4.11242 4.29375,5.94406 1.32059,1.83162 3.34284,4.61276 4.49392,6.18028 1.15106,1.56752 2.30715,3.172 2.56908,3.56548 0.26193,0.39348 0.53296,0.65011 0.60226,0.5703 0.12426,-0.14319 0.46132,-1.39387 1.00389,-3.72563 1.14251,-4.91016 1.07558,-13.13215 -0.15095,-18.5452 -0.96163,-4.24407 -2.28493,-7.83976 -4.32475,-11.75139 -1.26759,-2.43075 -3.44863,-5.72208 -5.07265,-7.65489 -6.02858,-7.17486 -12.88893,-11.83829 -21.413609,-14.55621 -2.017471,-0.64322 -2.243381,-0.70862 -3.523269,-1.0201 -1.201968,-0.29253 -1.677342,-0.37771 -4.751498,-0.85134 -1.773103,-0.27318 -9.6382,-0.28263 -11.45129,-0.0139 -2.576236,0.38204 -3.781136,0.60148 -5.356248,0.97549 -1.499509,0.35605 -5.037944,1.46592 -5.817995,1.82488 -0.203169,0.0935 -0.803121,0.33528 -1.333229,0.5373 -2.322465,0.88514 -7.110169,3.59026 -9.368425,5.29331 -2.772851,2.09115 -4.663687,3.85387 -7.402591,6.90106 -0.156709,0.17434 -0.635872,0.76503 -1.807037,2.22759 -1.399068,1.74717 -3.480987,5.12832 -4.693153,7.62197 -2.033773,4.18381 -3.105685,7.4986 -4.09697,12.66948 -0.360495,1.88046 -0.801487,7.78411 -0.692648,9.27259 0.301428,4.12229 0.709007,7.14191 1.226807,9.08898 0.816187,3.0691 2.160984,6.61017 2.510352,6.61017 0.143483,0 0.260879,-0.0669 0.260879,-0.1488 0,-0.0819 0.685693,-0.97035 1.52376,-1.97449 0.83807,-1.00415 2.188675,-2.64177 3.001349,-3.63918 2.674932,-3.28298 3.459702,-4.23771 3.949199,-4.80448 0.265958,-0.30795 0.774459,-0.92032 1.130004,-1.36081 0.721681,-0.89412 4.110591,-5.03635 4.58774,-5.60754 0.168719,-0.20197 0.847006,-1.02742 1.507302,-1.83431 0.660296,-0.8069 1.290871,-1.56361 1.401275,-1.6816 0.110408,-0.11797 1.163842,-1.39954 2.340969,-2.84789 5.314551,-6.5391 6.077804,-7.37613 6.976103,-7.65042 0.776441,-0.23709 0.899309,-0.22646 1.698486,0.147 0.692234,0.32348 1.170679,0.80538 2.435137,2.4527 0.865503,1.12756 1.641938,2.13274 1.725427,2.23372 0.08348,0.10106 2.561758,3.40607 5.507273,7.34464 2.945517,3.93856 5.533033,7.36758 5.750036,7.62004 0.337085,0.3922 3.703679,4.70445 4.922108,6.30471 0.218091,0.28645 0.483373,0.61695 0.589535,0.73447 0.106107,0.11756 0.850434,1.08123 1.653971,2.14162 0.803537,1.06038 1.547836,2.02003 1.653984,2.13255 0.106107,0.11254 1.797606,2.31651 3.758771,4.89776 1.961178,2.58125 3.685795,4.79219 3.832485,4.91324 0.14671,0.12103 0.26672,0.29257 0.26672,0.38119 0,0.0889 -2.50809,0.16113 -5.593862,0.16113 h -5.593876 l -0.701535,-0.93416 c -0.385838,-0.51379 -0.818084,-1.07152 -0.960548,-1.23941 -0.481725,-0.56767 -5.407309,-6.92187 -8.233468,-10.62148 -0.878693,-1.15026 -1.864161,-2.41647 -2.189923,-2.8138 -0.325763,-0.39732 -1.185997,-1.49879 -1.911643,-2.44772 -6.859258,-8.9699 -8.129606,-10.59435 -8.24906,-10.54844 -0.07551,0.029 -0.981222,1.08561 -2.0127,2.34795 -1.031481,1.26237 -2.394183,2.9149 -3.028231,3.67233 -0.634046,0.75741 -1.770071,2.16207 -2.524496,3.12145 -0.754426,0.9594 -1.624902,2.03651 -1.93439,2.39361 -0.309489,0.35705 -0.853607,1.01512 -1.209151,1.46233 -0.355545,0.44722 -0.899787,1.10527 -1.209426,1.46235 -0.309641,0.35708 -1.428679,1.72338 -2.486751,3.03624 -2.508858,3.11298 -6.941806,8.63922 -7.581179,9.45091 l -0.502053,0.63737 0.84341,1.10699 c 5.509327,7.23106 12.725492,12.61785 20.909707,15.60888 0.76188,0.27844 1.551465,0.57763 1.754633,0.66488 1.117192,0.47972 5.630389,1.48841 8.219078,1.83694 3.784236,0.50949 6.118283,0.54173 10.712492,0.14801 z"
       id="path3" /></g></svg>
